<?xml version="1.0" encoding="UTF-8"?>
<svg width="676px" height="89px" viewBox="0 0 676 89" version="1.1" xmlns="http://www.w3.org/2000/svg" xmlns:xlink="http://www.w3.org/1999/xlink">
    <title>Logo_White</title>
    <g id="Logo_White" stroke="none" stroke-width="1" fill="none" fill-rule="evenodd">
        <polygon id="Path" fill="#FFFFFF" fill-rule="nonzero" points="54.48 86.0742188 54.48 69.1542187 18.24 69.1542187 18.24 2.07421875 0 2.07421875 0 86.0742188"></polygon>
        <polygon id="Path" fill="#FFFFFF" fill-rule="nonzero" points="124.56 86.0742188 124.56 69.1542187 90.12 69.1542187 90.12 52.2342187 123.36 52.2342187 123.36 35.9142188 90.12 35.9142188 90.12 18.9942188 124.56 18.9942188 124.56 2.07421875 71.88 2.07421875 71.88 86.0742188"></polygon>
        <path d="M171.6,0.03421875 C193.08,0.03421875 204,14.9142188 204,44.0742188 C204,73.2342187 193.08,88.1142187 171.6,88.1142187 C150.12,88.1142187 139.2,73.2342187 139.2,44.0742188 C139.2,14.9142188 150.12,0.03421875 171.6,0.03421875 Z M171.6,16.9542187 C162.36,16.9542187 158.28,25.2342187 158.28,44.0742188 C158.28,62.9142188 162.36,71.1942188 171.6,71.1942188 C180.84,71.1942188 184.92,62.9142188 184.92,44.0742188 C184.92,25.2342187 180.84,16.9542187 171.6,16.9542187 Z" id="Combined-Shape" fill="#FFFFFF" fill-rule="nonzero"></path>
        <polygon id="Path" fill="#FFFFFF" fill-rule="nonzero" points="233.28 86.0742188 233.28 18.8742188 235.56 18.8742188 236.4 34.1142187 249.6 86.0742188 275.52 86.0742188 275.52 2.07421875 258.72 2.07421875 258.72 69.8742188 256.44 69.8742188 255.6 54.5142187 242.4 2.07421875 216.48 2.07421875 216.48 86.0742188"></polygon>
        <path d="M334.92,2.07421875 L355.44,86.0742188 L335.88,86.0742188 L330.48,60.9942188 L310.2,60.9942188 L304.92,86.0742188 L285.36,86.0742188 L305.88,2.07421875 L334.92,2.07421875 Z M321.6,10.7142187 L319.2,10.7142187 L318.72,20.7942187 L313.56,45.2742187 L327.24,45.2742187 L321.96,20.7942187 L321.6,10.7142187 Z" id="Combined-Shape" fill="#FFFFFF" fill-rule="nonzero"></path>
        <path d="M399.36,2.07421875 C416.04,2.07421875 426.72,10.5942187 426.72,26.3142188 C426.72,38.9142188 418.44,46.5942187 405.48,48.7542188 L405.48,48.7542188 L405.48,50.5542188 L410.04,52.1142187 L427.32,86.0742188 L406.32,86.0742188 L389.76,52.7142187 L385.68,52.7142187 L385.68,86.0742188 L367.32,86.0742188 L367.32,2.07421875 Z M396.84,18.3942187 L385.68,18.3942187 L385.68,37.8342187 L396.84,37.8342187 C403.8,37.8342187 408,34.2342187 408,27.8742187 C408,21.7542187 403.68,18.3942187 396.84,18.3942187 L396.84,18.3942187 Z" id="Combined-Shape" fill="#FFFFFF" fill-rule="nonzero"></path>
        <path d="M467.04,2.07421875 C488.16,2.07421875 501.24,17.9142188 501.24,44.0742188 C501.24,70.2342187 488.28,86.0742188 467.04,86.0742188 L467.04,86.0742188 L441.72,86.0742188 L441.72,2.07421875 Z M467.64,18.9942188 L459.72,18.9942188 L459.72,69.1542187 L467.64,69.1542187 C476.52,69.1542187 482.04,59.4342188 482.04,44.0742188 C482.04,28.7142187 476.52,18.9942188 467.64,18.9942188 L467.64,18.9942188 Z" id="Combined-Shape" fill="#FFFFFF" fill-rule="nonzero"></path>
        <path d="M543.6,0.03421875 C565.08,0.03421875 576,14.9142188 576,44.0742188 C576,73.2342187 565.08,88.1142187 543.6,88.1142187 C522.12,88.1142187 511.2,73.2342187 511.2,44.0742188 C511.2,14.9142188 522.12,0.03421875 543.6,0.03421875 Z M543.6,16.9542187 C534.36,16.9542187 530.28,25.2342187 530.28,44.0742188 C530.28,62.9142188 534.36,71.1942188 543.6,71.1942188 C552.84,71.1942188 556.92,62.9142188 556.92,44.0742188 C556.92,25.2342187 552.84,16.9542187 543.6,16.9542187 Z" id="Combined-Shape" fill="#FFFFFF" fill-rule="nonzero"></path>
        <path d="M588.827344,32.9296875 C594.022656,31.9140625 598.055859,29.7070312 600.926953,26.3085938 C603.798047,22.9101562 605.233594,18.2617188 605.233594,12.3632812 L605.233594,12.3632812 L605.233594,0 L588.534375,0 L588.534375,15.4101562 L597.733594,15.4101562 C597.850781,17.1679688 597.51875,18.90625 596.7375,20.625 C595.292187,23.515625 592.655469,25.5664062 588.827344,26.7773438 L588.827344,26.7773438 L588.827344,32.9296875 Z" id="Path" fill="#FFFFFF" fill-rule="nonzero"></path>
        <path d="M643.899844,88.1142187 C663.219844,88.1142187 674.979844,77.9142188 674.979844,61.7142187 C674.979844,48.2742187 667.179844,40.1142187 653.139844,37.3542187 L642.939844,35.3142188 C634.659844,33.6342188 631.539844,30.5142187 631.539844,25.5942187 C631.539844,19.8342187 635.979844,15.7542188 644.139844,15.7542188 C653.379844,15.7542188 657.339844,20.3142188 657.339844,29.3142188 L675.699844,29.3142188 C675.699844,9.99421875 664.539844,0.03421875 644.379844,0.03421875 C625.299844,0.03421875 613.059844,10.2342187 613.059844,26.6742188 C613.059844,39.6342188 620.739844,47.9142188 634.899844,50.6742188 L645.339844,52.7142187 C653.499844,54.2742187 656.619844,57.5142188 656.619844,62.4342188 C656.619844,68.4342188 651.939844,72.2742187 644.379844,72.2742187 C635.259844,72.2742187 631.059844,67.7142187 631.059844,58.5942187 L612.699844,58.5942187 C612.699844,77.9142188 623.859844,88.1142187 643.899844,88.1142187 Z" id="Path" fill="#FFFFFF" fill-rule="nonzero"></path>
    </g>
</svg>